<?xml version="1.0" encoding="UTF-8" standalone="no"?>
<svg width="574px" height="220px" viewBox="0 0 574 220" version="1.1" xmlns="http://www.w3.org/2000/svg" xmlns:xlink="http://www.w3.org/1999/xlink" xmlns:sketch="http://www.bohemiancoding.com/sketch/ns">
    <!-- Generator: Sketch 3.0.4 (8053) - http://www.bohemiancoding.com/sketch -->
    <title>bugs-logo-big</title>
    <desc>Created with Sketch.</desc>
    <defs></defs>
    <g id="pxln-bugs-logo" stroke="none" stroke-width="1" fill="none" fill-rule="evenodd" sketch:type="MSPage">
        <g id="bugs-logo-big" sketch:type="MSArtboardGroup" fill="#F8E81C">
            <g id="logo-Bugs-2" sketch:type="MSLayerGroup" transform="translate(4.000000, 4.000000)">
                <path d="M65.3171986,163.928571 L86.2286005,163.928571 C89.9989998,163.928571 97.6527956,163.175231 109.190217,161.668527 C117.862136,160.538499 124.347125,158.730481 128.64538,156.24442 C135.582915,152.251654 141.049912,146.827601 145.046535,139.972098 C149.043159,133.116595 151.04144,125.394853 151.04144,116.806641 C151.04144,106.259713 148.232535,97.5021275 142.61464,90.5336217 C136.996745,83.5651158 128.230698,78.6495679 116.316236,75.7868304 C124.158667,73.0747632 130.115808,69.3833939 134.18784,64.7126116 C140.295887,57.7064382 143.349864,49.3066896 143.349864,39.5131138 C143.349864,27.8361581 139.070525,18.0427293 130.511719,10.1325335 C121.952912,2.22233768 109.680447,-1.73270089 93.6939538,-1.73270089 L-2.22452446,-1.73270089 L-2.22452446,163.928571 L54.627418,163.928571 L54.627418,218.767067 C48.0838852,220.998859 43.3596756,227.182102 43.3596756,234.462413 L43.3596756,252.464863 C43.3596756,261.61546 50.8153829,269.05895 59.9723083,269.05895 C69.1292336,269.05895 76.5799152,261.61546 76.5799152,252.464863 L76.5799152,234.462413 C76.5799152,227.182102 71.8582185,220.998859 65.3171986,218.769578 L65.3171986,163.928571 L65.3171986,163.928571 Z M65.3171986,163.928571 L54.627418,163.928571 L54.627418,135.959812 L34.9817423,135.959812 C25.9127676,135.959812 18.5299337,128.759837 18.5299337,119.913004 L18.5299337,69.2018763 C18.5299337,60.355044 25.9127676,53.1575784 34.9817423,53.1575784 L84.9628743,53.1575784 C94.0343618,53.1575784 101.414683,60.355044 101.414683,69.1993659 L101.414683,119.910494 C101.414683,128.757326 94.0318489,135.957302 84.9628743,135.957302 L65.3171986,135.957302 L65.3171986,163.928571 L65.3171986,163.928571 Z M90.7148507,89.4034825 L81.9926532,89.4034825 L81.9926532,79.989288 L90.7148507,79.989288 L90.7148507,89.4034825 L90.7148507,89.4034825 Z M73.5921039,89.4034825 L64.1738393,89.4034825 L64.1738393,79.989288 L73.5921039,79.989288 L73.5921039,89.4034825 Z M64.1738393,71.5968474 L64.1738393,63.8395511 L73.5921039,63.8395511 L73.5921039,71.5968474 L64.1738393,71.5968474 Z M55.7707772,71.5968474 L46.3474869,71.5968474 L46.3474869,63.8395511 L55.7707772,63.8395511 L55.7707772,71.5968474 Z M55.7707772,79.989288 L55.7707772,89.4034825 L46.3474869,89.4034825 L46.3474869,79.989288 L55.7707772,79.989288 Z M37.9494505,89.4034825 L29.2222272,89.4034825 L29.2222272,79.989288 L37.9494505,79.989288 L37.9494505,89.4034825 Z M29.2247401,97.7959231 L37.9519634,97.7959231 L37.9519634,107.210118 L29.2247401,107.210118 L29.2247401,97.7959231 Z M46.3474869,97.7959231 L55.7707772,97.7959231 L55.7707772,107.210118 L46.3474869,107.210118 L46.3474869,97.7959231 Z M55.7707772,115.605069 L55.7707772,125.275329 L46.3474869,125.275329 L46.3474869,115.605069 L55.7707772,115.605069 L55.7707772,115.605069 Z M64.1738393,115.605069 L73.5921039,115.605069 L73.5921039,125.275329 L64.1738393,125.275329 L64.1738393,115.605069 Z M64.1738393,107.210118 L64.1738393,97.7959231 L73.5921039,97.7959231 L73.5921039,107.210118 L64.1738393,107.210118 Z M81.995166,97.7959231 L90.7173636,97.7959231 L90.7173636,107.210118 L81.995166,107.210118 L81.995166,97.7959231 L81.995166,97.7959231 Z M90.7148507,69.2018763 L90.7148507,71.5968474 L81.9926532,71.5968474 L81.9926532,63.8395511 L84.9628743,63.8395511 C88.1391514,63.8395511 90.7148507,66.244564 90.7148507,69.2018763 Z M34.9817423,63.8395511 L37.9519634,63.8395511 L37.9519634,71.5968474 L29.2247401,71.5968474 L29.2247401,69.2018763 C29.2247401,66.244564 31.8054652,63.8395511 34.9817423,63.8395511 Z M29.2247401,119.913004 L29.2247401,115.605069 L37.9519634,115.605069 L37.9519634,125.275329 L34.9817423,125.275329 C31.8054652,125.275329 29.2247401,122.870316 29.2247401,119.913004 Z M84.9628743,125.275329 L81.9926532,125.275329 L81.9926532,115.605069 L90.7148507,115.605069 L90.7148507,119.913004 C90.7148507,122.870316 88.1391514,125.275329 84.9628743,125.275329 Z" id="B" sketch:type="MSShapeGroup"></path>
                <path d="M282.06216,163.928571 L239.079823,163.928571 L239.079823,144.492188 C232.670145,152.477718 226.204007,158.165441 219.681216,161.555525 C213.158425,164.945608 205.146447,166.640625 195.645041,166.640625 C182.976499,166.640625 173.041646,162.855088 165.840183,155.283901 C158.638721,147.712713 155.038043,136.054766 155.038043,120.30971 L155.038043,43.9202009 L201.300611,43.9202009 L201.300611,109.913504 C201.300611,117.447024 202.695638,122.795743 205.485734,125.959821 C208.275829,129.1239 212.196986,130.705915 217.249321,130.705915 C222.754104,130.705915 227.259663,128.596561 230.766135,124.37779 C234.272606,120.159019 236.025815,112.587945 236.025815,101.664342 L236.025815,43.9202009 L282.06216,43.9202009 L282.06216,163.928571 Z" id="Path" sketch:type="MSShapeGroup"></path>
                <path d="M374.285666,43.9202009 L417.381114,43.9202009 L417.381114,157.26144 L417.494226,162.572545 C417.494226,170.106064 415.89183,177.281634 412.68699,184.09947 C409.482151,190.917305 405.221664,196.435526 399.905401,200.654297 C394.589138,204.873068 387.840224,207.924098 379.658458,209.807478 C371.476691,211.690858 362.10739,212.632533 351.550272,212.632533 C327.419716,212.632533 310.84906,209.016498 301.837806,201.784319 C292.826551,194.55214 288.320992,184.871712 288.320992,172.742746 C288.320992,171.236042 288.396399,169.202022 288.547215,166.640625 L333.226223,171.725725 C334.357343,175.869161 336.0917,178.731856 338.429348,180.313895 C341.822707,182.649286 346.083194,183.816964 351.210938,183.816964 C357.84684,183.816964 362.804841,182.046614 366.085088,178.505859 C369.365336,174.965105 371.005435,168.787711 371.005435,159.973493 L371.005435,141.780134 C366.480956,147.128933 361.956544,151.008637 357.432065,153.419364 C350.343715,157.186124 342.689919,159.069475 334.470448,159.069475 C318.408547,159.069475 305.438568,152.063407 295.560122,138.05106 C288.54718,128.106814 285.040761,114.961019 285.040761,98.6132812 C285.040761,79.9301521 289.565172,65.6920133 298.61413,55.8984375 C307.663089,46.1048617 319.501965,41.2081473 334.131114,41.2081473 C343.481704,41.2081473 351.192055,42.7901628 357.262398,45.9542411 C363.332741,49.1183194 369.007107,54.3540371 374.285666,61.6615513 L374.285666,43.9202009 Z M355.094429,102.11635 C355.094429,110.779898 356.941897,117.202128 360.636889,121.383231 C364.33188,125.564335 369.195622,127.654855 375.228261,127.654855 C380.959268,127.654855 385.766455,125.489 389.649966,121.157227 C393.533477,116.825453 395.475204,110.290222 395.475204,101.551339 C395.475204,92.8124563 393.439219,86.1265578 389.367188,81.4934431 C385.295156,76.8603284 380.318304,74.5438058 374.436481,74.5438058 C368.554658,74.5438058 363.860581,76.6719932 360.35411,80.9284319 C356.847639,85.1848706 355.094429,92.2474395 355.094429,102.11635 Z" id="Path" sketch:type="MSShapeGroup"></path>
                <path d="M427.410326,130.705915 L473.107337,126.41183 C474.992537,131.835965 477.631777,135.715669 481.025136,138.05106 C484.418495,140.386451 488.942907,141.554129 494.598505,141.554129 C500.78196,141.554129 505.570296,140.235783 508.963655,137.599051 C511.602934,135.640336 512.922554,133.191979 512.922554,130.253906 C512.922554,126.939158 511.188197,124.377799 507.719429,122.569754 C505.230966,121.289056 498.632866,119.707041 487.924932,117.823661 C471.938439,115.036258 460.83478,112.456067 454.613621,110.083008 C448.392462,107.709949 443.151686,103.69841 438.891135,98.0482701 C434.630583,92.3981302 432.50034,85.9570674 432.50034,78.7248884 C432.50034,70.8146926 434.800249,63.9969594 439.400136,58.2714844 C444.000023,52.5460093 450.334199,48.270801 458.402853,45.445731 C466.471508,42.6206611 477.292391,41.2081473 490.865829,41.2081473 C505.193346,41.2081473 515.769157,42.3004913 522.59358,44.4852121 C529.418003,46.6699328 535.11122,50.0599659 539.673404,54.6554129 C544.235587,59.25086 548.024781,65.4659206 551.041101,73.3007812 L507.380095,77.5948661 C506.248975,73.752771 504.363804,70.9277434 501.724524,69.1196987 C498.104941,66.7089723 493.731344,65.5036272 488.603601,65.5036272 C483.40045,65.5036272 479.611255,66.4264696 477.235904,68.2721819 C474.860552,70.1178943 473.672894,72.3590828 473.672894,74.9958147 C473.672894,77.9338875 475.181031,80.1562425 478.197351,81.6629464 C481.21367,83.1696504 487.774066,84.5256636 497.878736,85.7310268 C513.186558,87.4637363 524.572993,89.8744265 532.038383,92.9631696 C539.503774,96.0519128 545.215843,100.458956 549.174762,106.184431 C553.133681,111.909906 555.113111,118.200301 555.113111,125.055804 C555.113111,131.986642 553.020571,138.729041 548.835428,145.283203 C544.650285,151.837365 538.052185,157.05425 529.040931,160.934012 C520.029676,164.813775 507.757211,166.753627 492.223166,166.753627 C470.279442,166.753627 454.651371,163.627263 445.338485,157.374442 C436.025599,151.121621 430.049606,142.2322 427.410326,130.705915 L427.410326,130.705915 Z" id="Path" sketch:type="MSShapeGroup"></path>
            </g>
        </g>
    </g>
</svg>